<svg width="123" height="36" viewBox="0 0 123 36" fill="none" xmlns="http://www.w3.org/2000/svg">
<path d="M18.495 25.0346C19.0971 23.8194 19.4427 22.359 19.4427 20.8874C19.4427 17.5207 17.7147 14.4883 15.1171 12.7603C16.6779 11.1215 18.4059 9.56076 20.223 8C18.1494 9.21517 16.1539 10.6756 14.2587 12.2364C12.8763 11.5452 11.4047 11.1104 9.76592 11.1104C4.40358 11.1104 0 15.5251 0 20.8763C0 23.2955 0.869568 25.5474 2.33 27.2754C0.423636 31.3446 0.167225 34.533 1.80603 35.659C3.53401 36.8741 7.42477 34.7113 9.67673 31.2442C9.67673 31.2442 6.13157 34.4438 4.14717 33.7526C2.93201 33.3178 2.93201 31.4226 3.89076 28.825C5.52956 30.0402 7.52511 30.7314 9.68788 30.7314C12.3635 30.7314 14.7938 29.6946 16.5218 27.8774L16.8674 28.5686C21.1038 28.223 33.8128 27.8774 33.8128 27.8774C33.8128 27.1862 25.4293 27.7882 18.5062 25.0235L18.495 25.0346ZM1.03679 20.8763C1.03679 16.116 4.83837 12.3144 9.59869 12.3144C10.8919 12.3144 12.1071 12.5708 13.1439 13.0948C8.47272 17.2419 4.92755 22.0023 2.76478 26.1494C1.72799 24.6779 1.03679 22.8607 1.03679 20.8763ZM9.58755 29.5274C7.60315 29.5274 5.69679 28.8362 4.3144 27.7102C6.04238 23.9086 9.49836 18.7135 14.1695 13.7079C16.5887 15.2687 18.1495 17.9443 18.1495 20.9655C18.1495 22.2587 17.893 23.4738 17.3691 24.5998C15.8975 23.9086 14.4259 23.0391 13.2999 21.9242L15.8975 26.7626C14.3367 28.4014 12.0959 29.5274 9.58755 29.5274ZM71.1597 20.0179L69.6881 21.9242H75.2176L73.6569 24.087H62.5866L70.2009 13.9755H81.2712L79.6324 16.0491H74.1028L72.7204 17.8663H78.3392L76.7004 20.029H71.1708L71.1597 20.0179ZM89.9223 13.9643L82.308 24.0759H76.7784L84.3927 13.9643H89.9223ZM106.433 13.9643L98.8186 24.0759H94.4931L93.2779 18.9699L89.4763 24.0759H85.842L93.3671 13.9643H97.6926L98.9078 19.0703L102.799 13.9643H106.433ZM120.781 13.9643C121.561 13.9643 122.163 14.5664 122.163 15.2575C122.163 15.514 122.074 15.7815 121.907 16.0379L120.959 17.3311H115.43L116.032 16.5508C116.121 16.5508 116.121 16.4616 116.121 16.3724C116.121 16.194 115.942 16.0268 115.775 16.0268H114.214C113.869 16.0268 113.434 16.2832 113.267 16.5508L109.632 21.3891C109.543 21.3891 109.543 21.4783 109.543 21.5675C109.543 21.7459 109.722 21.9131 109.889 21.9131H111.45C111.795 21.9131 112.141 21.6567 112.397 21.3891L114.56 18.5352H121.394L119.755 20.6979H118.462L117.336 22.1695C116.466 23.2955 115.173 23.9867 113.612 23.9867H104.705C103.925 23.9867 103.323 23.3847 103.323 22.6043C103.323 22.3479 103.412 22.0803 103.579 21.8239L108.161 15.7704C109.03 14.6444 110.324 13.9532 111.884 13.9532H120.792L120.781 13.9643ZM65.7081 15.3467C65.7081 14.5664 65.1061 13.9643 64.3258 13.9643H55.4182C53.8575 13.9643 52.5643 14.6555 51.6947 15.7815L47.1128 21.835C46.9344 22.0915 46.8563 22.359 46.8563 22.6154C46.8563 23.3958 47.4584 23.9978 48.2387 23.9978H57.1462C58.707 23.9978 60.0002 23.3066 60.8698 22.1806L65.4517 16.1271C65.5409 15.8707 65.7081 15.6031 65.7081 15.3467ZM59.4874 16.6399L55.853 21.4783C55.5966 21.7347 55.251 22.0023 54.9054 22.0023H53.3447C53.1663 22.0023 52.9991 21.8239 52.9991 21.6567C52.9991 21.5675 52.9991 21.4783 53.0883 21.4783L56.7226 16.6399C56.979 16.3835 57.3246 16.116 57.6702 16.116H59.231C59.4093 16.116 59.5766 16.2943 59.5766 16.4616C59.5766 16.4616 59.5766 16.5508 59.4874 16.6399ZM44.7828 19.2375C45.9087 18.9811 46.7672 18.3679 47.4584 17.5095L48.4951 16.1271C48.6735 15.8707 48.7516 15.6031 48.7516 15.3467C48.7516 14.5664 48.1495 13.9643 47.3692 13.9643H36.1317L28.5174 24.0759H40.1005C41.6612 24.0759 42.9544 23.3847 43.824 22.2587L44.8608 20.8763C45.0392 20.6979 45.0392 20.4415 45.0392 20.1851C45.2175 19.7503 45.0392 19.4939 44.7828 19.2375ZM39.6768 20.5307L38.9856 21.4003C38.7292 21.6567 38.3836 21.9242 38.038 21.9242H35.7861L37.2577 19.9398H39.4204C39.5988 19.9398 39.766 20.1182 39.766 20.2854C39.766 20.4527 39.766 20.5418 39.6768 20.5418V20.5307ZM42.62 16.6399L42.096 17.4203C41.8396 17.6767 41.494 17.9443 41.1484 17.9443H38.8965L40.2788 16.1271H42.4416C42.62 16.1271 42.7872 16.3055 42.7872 16.4727C42.698 16.4727 42.698 16.5619 42.6088 16.6511L42.62 16.6399Z" fill="#DDE2E7"/>
</svg>
