<svg width="52" height="40" viewBox="0 0 52 40" fill="none" xmlns="http://www.w3.org/2000/svg">
<path d="M33.6554 23.0048C34.2361 21.7481 34.5654 20.3527 34.5654 18.8793C34.5654 15.4818 32.832 12.483 30.1972 10.7322C31.766 9.12015 33.4647 7.52541 35.2675 6C33.1527 7.24806 31.1593 8.67813 29.3132 10.2209C27.9611 9.51017 26.4097 9.10281 24.7716 9.10281C19.3721 9.09415 14.9952 13.471 14.9952 18.8793C14.9952 21.3234 15.8879 23.5508 17.37 25.2669C15.4979 29.3144 15.1685 32.5733 16.8239 33.674C18.592 34.8527 22.4402 32.7119 24.7456 29.2364C24.7456 29.2364 21.1748 32.4519 19.216 31.7152C18.0113 31.2559 18.0027 29.4184 18.9994 26.7663C20.6201 27.9537 22.6222 28.6557 24.789 28.6557C27.4671 28.6557 29.8939 27.581 31.662 25.8303L32.0087 26.489C36.2729 26.1423 49.0048 25.8043 49.0048 25.8043C49.0048 25.1889 40.5717 25.7436 33.6554 22.9961V23.0048ZM16.1739 18.8793C16.1739 14.1211 20.0308 10.2729 24.7803 10.2729C26.0544 10.2729 27.2678 10.5502 28.3511 11.0442C23.6883 15.1698 20.0741 19.9627 17.9333 24.1055C16.8239 22.6581 16.1652 20.8467 16.1652 18.8793H16.1739ZM24.7803 27.4857C22.7695 27.4857 20.9235 26.801 19.4587 25.6396C21.1575 21.7914 24.633 16.6345 29.3739 11.5903C31.792 13.1157 33.3954 15.8111 33.3954 18.8706C33.3954 20.1793 33.1007 21.4274 32.5807 22.5368C31.0813 21.8434 29.6772 20.968 28.4898 19.876L31.0899 24.7469C29.5212 26.4283 27.2764 27.4857 24.7976 27.4857H24.7803Z" fill="#1A2631"/>
</svg>
